# AST/ASF file generated using VICON BodyLanguage
# -----------------------------------------------
:version 1.10
:name VICON
:units
  mass 1.0
  length 0.45
  angle deg
:documentation
   .ast/.asf automatically generated from VICON data using
   VICON BodyBuilder and BodyLanguage model FoxedUp or BRILLIANT.MOD
:root
   order TX TY TZ RX RY RZ
   axis XYZ
   position 0 0 0  
   orientation 0 0 0 
:bonedata
  begin
     id 1 
     name lhipjoint
     direction 0.624716 -0.669793 0.401383 
     length 2.38238 
     axis 0 0 0  XYZ
  end
  begin
     id 2 
     name lfemur
     direction 0.34202 -0.939693 0  
     length 6.4574  
     axis 0 0 20  XYZ
    dof rx ry rz
    limits (-160.0 20.0)
           (-70.0 70.0)
           (-60.0 70.0)
  end
  begin
     id 3 
     name ltibia
     direction 0.34202 -0.939693 0   
     length 7.68739   
     axis 0 0 20   XYZ
    dof rx
    limits (-10.0 170.0)
  end
  begin
     id 4 
     name lfoot
     direction 0.0681309 -0.187188 0.979959   
     length 2.46615   
     axis -90 7.62852e-016 20   XYZ
    dof rx rz
    limits (-45.0 90.0)
           (-70.0 20.0)
  end
  begin
     id 5 
     name ltoes
     direction 1.53566e-011 -4.21819e-011 1   
     length 1.2376   
     axis -90 7.62852e-016 20   XYZ
    dof rx
    limits (-90.0 20.0)
  end
  begin
     id 6 
     name rhipjoint
     direction -0.644473 -0.655875 0.393043   
     length 2.43293  
     axis 0 0 0  XYZ 
  end
  begin
     id 7 
     name rfemur
     direction -0.34202 -0.939693 0   
     length 6.7025   
     axis 0 0 -20   XYZ
    dof rx ry rz
    limits (-160.0 20.0)
           (-70.0 70.0)
           (-70.0 60.0)
  end
  begin
     id 8 
     name rtibia
     direction -0.34202 -0.939693 0   
     length 7.80547   
     axis 0 0 -20   XYZ
    dof rx
    limits (-10.0 170.0)
 end
 begin
     id 9 
     name rfoot
     direction -0.0756734 -0.207911 0.975216   
     length 2.40315  
     axis -90 -7.62852e-016 -20   XYZ
    dof rx rz
    limits (-45.0 90.0)
           (-20.0 70.0)
  end
  begin
     id 10 
     name rtoes
     direction -1.5353e-011 -4.21879e-011 1   
     length 1.20477   
     axis -90 -7.62852e-016 -20   XYZ
    dof rx
    limits (-90.0 20.0)
  end
  begin
     id 11 
     name lowerback
     direction 0.0160353 0.987463 -0.157037   
     length 2.18572   
     axis 0 0 0   XYZ
    dof rx ry rz
    limits (-20.0 45.0)
           (-30.0 30.0)
           (-30.0 30.0)
  end
  begin
     id 12 
     name upperback
     direction -0.00499661 0.999756 0.0215076   
     length 2.18016   
     axis 0 0 0   XYZ
    dof rx ry rz
    limits (-20.0 45.0)
           (-30.0 30.0)
           (-30.0 30.0)
  end
  begin
     id 13 
     name thorax
     direction -0.00921346 0.995333 0.0960619   
     length 2.24923   
     axis 0 0 0   XYZ
    dof rx ry rz
    limits (-20.0 45.0)
           (-30.0 30.0)
           (-30.0 30.0)
  end
  begin
     id 14 
     name lowerneck
     direction 0.0274184 0.991181 0.12965   
     length 1.70911   
     axis 0 0 0   XYZ
    dof rx ry rz
    limits (-20.0 45.0)
           (-30.0 30.0)
           (-30.0 30.0)
  end
  begin
     id 15 
     name upperneck
     direction 0.0015627 0.999959 -0.00893559   
     length 1.69312   
     axis 0 0 0   XYZ
    dof rx ry rz
    limits (-20.0 45.0)
           (-30.0 30.0)
           (-30.0 30.0)
  end
  begin
     id 16
     name head
     direction -0.00230242 0.999856 -0.0168327  
     length 1.80241  
     axis 0 0 0   XYZ
    dof rx ry rz
    limits (-20.0 45.0)
           (-30.0 30.0)
           (-30.0 30.0)
  end
  begin
     id 17 
     name lclavicle
     direction 0.955523 0.290741 -0.0494489  
     length 3.84275  
     axis 0 0 0   XYZ
    dof ry rz
    limits (-20.0 10.0)
           (0.0 20.0)
  end
  begin
     id 18 
     name lhumerus
     direction 1 -4.48967e-011 -3.18382e-028   
     length 5.17714   
     axis 180 -30 -90   XYZ
    dof rx ry rz
    limits (-60.0 90.0)
           (-90.0 90.0)
           (-90.0 90.0)
  end
  begin
     id 19
     name lradius
     direction 1 -4.48968e-011 -2.22911e-027   
     length 3.43679   
     axis 180 -30 -90   XYZ
    dof rx
    limits (-10.0 170.0)
  end
  begin
     id 20
     name lwrist
     direction 1 -4.48951e-011 -6.32245e-027   
     length 1.7184   
     axis 3.57107e-015 90 90   XYZ
    dof ry
    limits (-180.0 0.0)
 end
  begin
     id 21 
     name lhand
     direction 1 -4.48924e-011 -1.26431e-026   
     length 0.573117   
     axis 8.06912e-015 90 90   XYZ
    dof rx rz
    limits (-90.0 90.0)
           (-45.0 45.0)
  end
  begin
     id 22 
     name lfingers
     direction 1 -4.49001e-011 -2.52965e-026   
     length 0.462062   
     axis 1.61381e-014 90 90   XYZ
    dof rx
    limits (0.0 90.0)
  end
  begin
     id 23
     name lthumb
     direction 0.707107 -6.35008e-011 0.707107   
     length 0.663431   
     axis -90 45 -1.62303e-014   XYZ
    dof rx rz
    limits (-45.0 45.0)
           (-45.0 45.0)
  end
  begin
     id 24 
     name rclavicle
     direction -0.963917 0.256881 -0.0698287   
     length 3.73057  
     axis 0 0 0   XYZ 
    dof ry rz
    limits (-10.0 20.0)
           (-20.0 0.0)
  end
  begin
     id 25 
     name rhumerus
     direction -1 -4.48962e-011 -2.73982e-027  
     length 5.23908   
     axis 180 30 90   XYZ
    dof rx ry rz
    limits (-90.0 60.0)
           (-90.0 90.0)
           (-90.0 90.0)
  end
  begin
     id 26 
     name rradius
     direction -1 -4.48968e-011 -4.33218e-027   
     length 3.46485   
     axis 180 30 90   XYZ
    dof rx
    limits (-10.0 170.0)
  end
  begin
     id 27 
     name rwrist
     direction -1 -4.48989e-011 -6.32372e-027   
     length 1.73243   
     axis 3.57107e-015 -90 -90   XYZ
    dof ry
    limits (-180.0 0.0)
  end
  begin
     id 28
     name rhand
     direction -1 -4.48948e-011 -1.26448e-026   
     length 0.608752   
     axis 8.06912e-015 -90 -90   XYZ
    dof rx rz
    limits (-90.0 90.0)
           (-45.0 45.0)
  end
  begin
     id 29
     name rfingers
     direction -1 -4.48962e-011 -2.52913e-026   
     length 0.490792   
     axis 1.61381e-014 -90 -90   XYZ
    dof rx
    limits (0.0 90.0)
  end
  begin
     id 30
     name rthumb
     direction -0.707107 -6.34878e-011 0.707107   
     length 0.704682   
     axis -90 -45 1.62303e-014   XYZ
    dof rx rz
    limits (-45.0 45.0)
           (-45.0 45.0)
  end
:hierarchy
  begin
    root lhipjoint rhipjoint lowerback
    lhipjoint lfemur
    lfemur ltibia
    ltibia lfoot
    lfoot ltoes
    rhipjoint rfemur
    rfemur rtibia
    rtibia rfoot
    rfoot rtoes
    lowerback upperback
    upperback thorax
    thorax lowerneck lclavicle rclavicle
    lowerneck upperneck
    upperneck head
    lclavicle lhumerus
    lhumerus lradius
    lradius lwrist
    lwrist lhand lthumb
    lhand lfingers
    rclavicle rhumerus
    rhumerus rradius
    rradius rwrist
    rwrist rhand rthumb
    rhand rfingers
  end

#!OML:ASF G:\JayActor3\Patient Classification 1\Patient 1\Session 6\male.ASF
:FULLY-SPECIFIED
:DEGREES
102
root 49.4403 15.7287 -27.9673 3.96461 -58.065 -6.94574
lowerback 5.24561 -0.786829 2.65378
upperback 4.35604 -1.02221 0.307857
thorax 1.50428 -0.48253 -1.13205
lowerneck 1.97915 -0.454049 1.73175
upperneck 1.74715 -0.616338 2.38488
head 0.208593 -0.304396 0.440222
rclavicle -1.56046e-014 4.77083e-015
rhumerus -32.0793 -4.41383 -85.577
rradius 32.3234
rwrist -1.47759
rhand -17.0388 -5.08055
rfingers 7.12502
rthumb 9.19791 -34.8599
lclavicle -1.56046e-014 4.77083e-015
lhumerus -31.7053 -6.26796 86.8378
lradius 32.8382
lwrist 24.403
lhand -15.843 9.38354
lfingers 7.12502
lthumb 10.3516 39.1088
rfemur -11.1827 1.07144 25.6308
rtibia 36.6288
rfoot -25.2498 -15.6337
rtoes 1.72724
lfemur -4.69953 9.50236 -16.3838
ltibia 26.6273
lfoot -19.0059 6.87948
ltoes -2.55996
103
root 49.4676 15.7278 -27.9833 3.97647 -58.1141 -6.83104
lowerback 5.60381 -0.789752 2.60626
upperback 4.44657 -1.0215 0.283513
thorax 1.39912 -0.485161 -1.12608
lowerneck 2.87076 -0.413618 1.73185
upperneck 0.808326 -0.511527 2.39801
head -0.219866 -0.271205 0.448062
rclavicle -5.61567e-014 1.78906e-014
rhumerus -31.8579 -4.18657 -85.6435
rradius 32.706
rwrist -1.76298
rhand -16.9573 -5.11405
rfingers 7.12502
rthumb 9.27655 -34.89
lclavicle -5.61567e-014 1.78906e-014
lhumerus -31.5527 -6.48265 86.7919
lradius 33.3654
lwrist 24.6198
lhand -15.8411 9.36472
lfingers 7.12502
lthumb 10.3535 39.0898
rfemur -11.574 1.1366 25.564
rtibia 36.8753
rfoot -25.1941 -15.677
rtoes 1.67396
lfemur -5.06611 9.51419 -16.5036
ltibia 26.839
lfoot -18.9422 6.93806
ltoes -2.71816
104
root 49.4962 15.7268 -28.0002 3.98781 -58.1743 -6.69884
lowerback 5.97481 -0.783836 2.55647
upperback 4.54561 -1.00962 0.250532
thorax 1.29625 -0.482171 -1.12816
lowerneck 3.84397 -0.379232 1.7322
upperneck -0.219721 -0.409919 2.41224
head -0.697787 -0.241606 0.457883
rclavicle -2.33572e-014 1.98785e-015
rhumerus -31.6353 -3.9779 -85.7098
rradius 33.1516
rwrist -2.06088
rhand -16.8724 -5.14405
rfingers 7.12502
rthumb 9.35843 -34.9163
lclavicle -2.33572e-014 1.98785e-015
lhumerus -31.3803 -6.66926 86.7214
lradius 33.9153
lwrist 24.831
lhand -15.8312 9.3054
lfingers 7.12502
lthumb 10.363 39.03
rfemur -12.0002 1.19912 25.4846
rtibia 37.1402
rfoot -25.1339 -15.7102
rtoes 1.61711
lfemur -5.45825 9.52929 -16.6379
ltibia 27.0607
lfoot -18.8837 7.0024
ltoes -2.83942
105
root 49.526 15.7254 -28.018 3.98955 -58.2424 -6.5441
lowerback 6.35397 -0.773089 2.49382
upperback 4.66012 -0.992981 0.216021
thorax 1.20552 -0.477036 -1.12501
lowerneck 4.87904 -0.348299 1.72204
upperneck -1.31517 -0.309715 2.42922
head -1.21947 -0.214287 0.470712
rclavicle -1.05356e-014 7.95139e-016
rhumerus -31.4092 -3.76671 -85.7715
rradius 33.6681
rwrist -2.38269
rhand -16.7865 -5.16814
rfingers 7.12502
rthumb 9.44131 -34.9367
lclavicle -1.05356e-014 7.95139e-016
lhumerus -31.1624 -6.7998 86.6332
lradius 34.4695
lwrist 25.0268
lhand -15.8104 9.22051
lfingers 7.12502
lthumb 10.383 38.9442
rfemur -12.4514 1.25938 25.3895
rtibia 37.4184
rfoot -25.0636 -15.7397
rtoes 1.53706
lfemur -5.86921 9.54903 -16.7882
ltibia 27.2907
lfoot -18.8309 7.06818
ltoes -2.92874
106
root 49.5569 15.7236 -28.0362 3.98527 -58.3171 -6.37812
lowerback 6.74528 -0.755958 2.42667
upperback 4.79184 -0.969286 0.182692
thorax 1.12659 -0.468516 -1.11868
lowerneck 5.95696 -0.321105 1.70021
upperneck -2.45103 -0.212941 2.45194
head -1.77549 -0.1898 0.487569
rclavicle -1.08835e-014 7.55382e-015
rhumerus -31.1883 -3.55369 -85.8244
rradius 34.2653
rwrist -2.72932
rhand -16.7088 -5.18112
rfingers 7.12502
rthumb 9.51631 -34.9462
lclavicle -1.08835e-014 7.55382e-015
lhumerus -30.9542 -6.91829 86.5345
lradius 35.0875
lwrist 25.2462
lhand -15.8441 9.21038
lfingers 7.12502
lthumb 10.3505 38.9357
rfemur -12.9155 1.32142 25.2859
rtibia 37.7033
rfoot -24.993 -15.7641
rtoes 1.4544
lfemur -6.29273 9.57448 -16.9461
ltibia 27.53
lfoot -18.7842 7.12768
ltoes -2.97628
107
root 49.5889 15.7214 -28.0549 3.97288 -58.3883 -6.20337
lowerback 7.15277 -0.738279 2.35387
upperback 4.93962 -0.946336 0.154086
thorax 1.05587 -0.460686 -1.10444
lowerneck 7.05982 -0.296046 1.67128
upperneck -3.60222 -0.11909 2.46924
head -2.35618 -0.167115 0.504179
rclavicle -3.30976e-014 2.78299e-015
rhumerus -30.9754 -3.33995 -85.8643
rradius 34.9396
rwrist -3.09653
rhand -16.6494 -5.18037
rfingers 7.12502
rthumb 9.57363 -34.9429
lclavicle -3.30976e-014 2.78299e-015
lhumerus -30.7586 -7.01908 86.4271
lradius 35.764
lwrist 25.4911
lhand -15.9735 9.30162
lfingers 7.12502
lthumb 10.2257 39.0331
rfemur -13.3836 1.38019 25.1763
rtibia 37.9899
rfoot -24.9231 -15.7867
rtoes 1.37762
lfemur -6.72677 9.61327 -17.1073
ltibia 27.7795
lfoot -18.7397 7.1687
ltoes -3.00181
108
root 49.6218 15.7188 -28.074 3.95556 -58.4489 -6.02017
lowerback 7.57974 -0.726691 2.28106
upperback 5.09734 -0.932394 0.128712
thorax 0.98493 -0.457639 -1.08631
lowerneck 8.1799 -0.255169 1.64765
upperneck -4.77957 -0.00526617 2.4494
head -2.96503 -0.133762 0.507002
rclavicle -4.06018e-014 4.77083e-015
rhumerus -30.7764 -3.11027 -85.8998
rradius 35.6826
rwrist -3.47825
rhand -16.6094 -5.17875
rfingers 7.12502
rthumb 9.61219 -34.9395
lclavicle -4.06018e-014 4.77083e-015
lhumerus -30.6025 -7.10187 86.3068
lradius 36.515
lwrist 25.7732
lhand -16.1373 9.44017
lfingers 7.12502
lthumb 10.0677 39.1793
rfemur -13.8566 1.42042 25.0597
rtibia 38.2753
rfoot -24.8497 -15.8029
rtoes 1.29476
lfemur -7.17939 9.66517 -17.2718
ltibia 28.0443
lfoot -18.6937 7.18903
ltoes -3.01879
109
root 49.6555 15.7159 -28.0936 3.93989 -58.4945 -5.83607
lowerback 8.02032 -0.71893 2.21037
upperback 5.26707 -0.924591 0.108848
thorax 0.919362 -0.457884 -1.06334
lowerneck 9.29001 -0.206606 1.62764
upperneck -5.94561 0.115235 2.40214
head -3.58493 -0.0954838 0.498814
rclavicle 5.71506e-015 1.51076e-014
rhumerus -30.5966 -2.88452 -85.9242
rradius 36.4976
rwrist -3.86918
rhand -16.6008 -5.17791
rfingers 7.12502
rthumb 9.62048 -34.9382
lclavicle 5.71506e-015 1.51076e-014
lhumerus -30.469 -7.17123 86.1804
lradius 37.3164
lwrist 26.0805
lhand -16.3286 9.59891
lfingers 7.12502
lthumb 9.88315 39.3469
rfemur -14.3327 1.44261 24.9418
rtibia 38.5585
rfoot -24.7798 -15.813
rtoes 1.2318
lfemur -7.65298 9.72729 -17.4355
ltibia 28.329
lfoot -18.6454 7.19019
ltoes -3.05208
110
root 49.6902 15.7127 -28.1139 3.94169 -58.5205 -5.66111
lowerback 8.47489 -0.711126 2.16218
upperback 5.4368 -0.915861 0.0828874
thorax 0.846448 -0.457279 -1.05926
lowerneck 10.3747 -0.168842 1.62375
upperneck -7.04137 0.219617 2.36059
head -4.19155 -0.0643797 0.48894
rclavicle 1.58034e-014 -7.15625e-015
rhumerus -30.459 -2.69464 -85.9488
rradius 37.3775
rwrist -4.25678
rhand -16.6357 -5.16141
rfingers 7.12502
rthumb 9.5868 -34.9233
lclavicle 1.58034e-014 -7.15625e-015
lhumerus -30.3606 -7.25188 86.041
lradius 38.149
lwrist 26.4128
lhand -16.5085 9.72786
lfingers 7.12502
lthumb 9.70962 39.4841
rfemur -14.8212 1.44236 24.828
rtibia 38.8408
rfoot -24.7118 -15.8118
rtoes 1.19043
lfemur -8.16237 9.80188 -17.594
ltibia 28.642
lfoot -18.5897 7.17051
ltoes -3.11687
111
root 49.7258 15.7093 -28.1346 3.97191 -58.5235 -5.49357
lowerback 8.92834 -0.708013 2.12883
upperback 5.60593 -0.913044 0.0581505
thorax 0.773885 -0.4594 -1.06189
lowerneck 11.3795 -0.145318 1.6651
upperneck -8.41334 0.312379 2.33577
head -4.37961 -0.0473861 0.429358
rclavicle -9.0944e-014 2.22639e-014
rhumerus -30.3579 -2.52089 -85.9688
rradius 38.319
rwrist -4.63831
rhand -16.7012 -5.14725
rfingers 7.12502
rthumb 9.52362 -34.912
lclavicle -9.0944e-014 2.22639e-014
lhumerus -30.2716 -7.33127 85.8956
lradius 39.0038
lwrist 26.7728
lhand -16.6396 9.77745
lfingers 7.12502
lthumb 9.58309 39.5395
rfemur -15.3371 1.41886 24.7172
rtibia 39.1245
rfoot -24.6435 -15.8033
rtoes 1.17471
lfemur -8.72794 9.88949 -17.7515
ltibia 28.9909
lfoot -18.5263 7.12944
ltoes -3.22323
112
root 49.7624 15.7055 -28.156 4.04871 -58.5041 -5.35163
lowerback 9.38271 -0.707573 2.12115
upperback 5.76992 -0.912178 0.0357466
thorax 0.695901 -0.46203 -1.07636
lowerneck 12.3778 -0.132157 1.68026
upperneck -9.44085 0.381195 2.29844
head -4.86208 -0.0336007 0.41364
rclavicle 2.31584e-014 1.15295e-014
rhumerus -30.2898 -2.35936 -85.9836
rradius 39.3051
rwrist -5.02377
rhand -16.8275 -5.12427
rfingers 7.12502
rthumb 9.40181 -34.8946
lclavicle 2.31584e-014 1.15295e-014
lhumerus -30.1994 -7.41551 85.7503
lradius 39.8701
lwrist 27.1521
lhand -16.7327 9.78602
lfingers 7.12502
lthumb 9.49328 39.5522
rfemur -15.8846 1.38371 24.6209
rtibia 39.4125
rfoot -24.5823 -15.792
rtoes 1.19116
lfemur -9.35617 9.9812 -17.8989
ltibia 29.3843
lfoot -18.465 7.06542
ltoes -3.31739
113
root 49.8 15.7014 -28.1781 4.18946 -58.4609 -5.24443
lowerback 9.82259 -0.71685 2.12607
upperback 5.93264 -0.923703 0.0291676
thorax 0.62494 -0.470781 -1.08065
lowerneck 13.3257 -0.127366 1.6867
upperneck -10.4082 0.434006 2.26175
head -5.32093 -0.0260779 0.400131
rclavicle 2.15681e-014 -6.36111e-015
rhumerus -30.2316 -2.17123 -85.9858
rradius 40.322
rwrist -5.4277
rhand -16.9771 -5.11552
rfingers 7.12502
rthumb 9.25743 -34.8923
lclavicle 2.15681e-014 -6.36111e-015
lhumerus -30.1052 -7.46286 85.6134
lradius 40.7106
lwrist 27.536
lhand -16.7719 9.71592
lfingers 7.12502
lthumb 9.45545 39.4838
rfemur -16.4778 1.33932 24.545
rtibia 39.7086
rfoot -24.5184 -15.7873
rtoes 1.20864
lfemur -10.0609 10.0787 -18.0329
ltibia 29.8261
lfoot -18.4089 6.97441
ltoes -3.38893
